G04 #@! TF.FileFunction,Copper,L1,Top,Signal*
%FSLAX46Y46*%
G04 Gerber Fmt 4.6, Leading zero omitted, Abs format (unit mm)*
G04 Created by KiCad (PCBNEW 4.0.7) date 02/03/18 20:49:25*
%MOMM*%
%LPD*%
G01*
G04 APERTURE LIST*
%ADD10C,0.100000*%
%ADD11O,0.900000X1.500000*%
%ADD12O,0.900000X1.100000*%
%ADD13O,1.500000X2.000000*%
%ADD14O,1.300000X1.800000*%
%ADD15O,1.100000X1.700000*%
%ADD16O,1.100000X2.200000*%
%ADD17R,0.300000X1.000000*%
%ADD18R,0.600000X1.000000*%
%ADD19C,0.600000*%
%ADD20C,0.250000*%
%ADD21C,0.381000*%
%ADD22C,0.254000*%
G04 APERTURE END LIST*
D10*
D11*
X44450000Y-49747780D03*
D12*
X45247560Y-48448900D03*
D11*
X42852340Y-49747780D03*
D12*
X43652440Y-48448900D03*
D13*
X40894000Y-43688000D03*
X48006000Y-43688000D03*
D11*
X46047660Y-49747780D03*
D13*
X48006000Y-48514000D03*
D14*
X40894000Y-48514000D03*
D15*
X39998000Y-42224000D03*
X48648000Y-42224000D03*
D16*
X39998000Y-46404000D03*
X48648000Y-46404000D03*
D17*
X44573000Y-47189000D03*
X44073000Y-47189000D03*
X45073000Y-47189000D03*
X43573000Y-47189000D03*
X45573000Y-47189000D03*
X43073000Y-47189000D03*
X46073000Y-47189000D03*
X42573000Y-47189000D03*
D18*
X46723000Y-47189000D03*
X47523000Y-47189000D03*
X41923000Y-47189000D03*
X41123000Y-47189000D03*
D19*
X43561000Y-46228000D03*
X45085000Y-46228000D03*
D20*
X43573000Y-46216000D02*
X43573000Y-46597000D01*
X43573000Y-46609000D02*
X43573000Y-47119000D01*
X43561000Y-46228000D02*
X43573000Y-46228000D01*
X43573000Y-46228000D02*
X43573000Y-46216000D01*
X44573000Y-47119000D02*
X44573000Y-47883000D01*
X44450000Y-48006000D02*
X44450000Y-49547780D01*
X44573000Y-47883000D02*
X44450000Y-48006000D01*
X44450000Y-46228000D02*
X45085000Y-46228000D01*
X44073000Y-47119000D02*
X44073000Y-46605000D01*
X44073000Y-46605000D02*
X44450000Y-46228000D01*
X45073000Y-47119000D02*
X45073000Y-48174340D01*
X45073000Y-48174340D02*
X45247560Y-48348900D01*
D21*
X41123000Y-48285000D02*
X40894000Y-48514000D01*
X41123000Y-47119000D02*
X41123000Y-48285000D01*
X41123000Y-47119000D02*
X40713000Y-47119000D01*
X40713000Y-47119000D02*
X39998000Y-46404000D01*
X47523000Y-47119000D02*
X47933000Y-47119000D01*
X47933000Y-47119000D02*
X48648000Y-46404000D01*
X47523000Y-47119000D02*
X47523000Y-48031000D01*
X47523000Y-48031000D02*
X48006000Y-48514000D01*
X43053000Y-45466000D02*
X45593000Y-45466000D01*
X41923000Y-47119000D02*
X41923000Y-46596000D01*
X46723000Y-46596000D02*
X46723000Y-47119000D01*
X45593000Y-45466000D02*
X46723000Y-46596000D01*
X41923000Y-46596000D02*
X43053000Y-45466000D01*
X46723000Y-47119000D02*
X46723000Y-48872440D01*
X46723000Y-48872440D02*
X46047660Y-49547780D01*
D22*
G36*
X42423000Y-48132522D02*
X42723000Y-48132522D01*
X42809894Y-48116172D01*
X42767440Y-48329603D01*
X42767440Y-48562780D01*
X42725338Y-48562780D01*
X42725338Y-48681989D01*
X42589892Y-48602590D01*
X42316353Y-48732187D01*
X42083307Y-48991772D01*
X41967340Y-49320780D01*
X41967340Y-49620780D01*
X42725340Y-49620780D01*
X42725340Y-49600780D01*
X42979340Y-49600780D01*
X42979340Y-49620780D01*
X42999340Y-49620780D01*
X42999340Y-49874780D01*
X42979340Y-49874780D01*
X42979340Y-49894780D01*
X42725340Y-49894780D01*
X42725340Y-49874780D01*
X41967340Y-49874780D01*
X41967340Y-50174780D01*
X42007952Y-50290000D01*
X41867249Y-50290000D01*
X41334577Y-49757329D01*
X41635465Y-49575280D01*
X41889488Y-49229778D01*
X41991957Y-48813366D01*
X41877412Y-48641000D01*
X41021000Y-48641000D01*
X41021000Y-48661000D01*
X40767000Y-48661000D01*
X40767000Y-48641000D01*
X40747000Y-48641000D01*
X40747000Y-48387000D01*
X40767000Y-48387000D01*
X40767000Y-48367000D01*
X41021000Y-48367000D01*
X41021000Y-48387000D01*
X41877412Y-48387000D01*
X41991957Y-48214634D01*
X41971751Y-48132522D01*
X42223000Y-48132522D01*
X42326671Y-48113015D01*
X42423000Y-48132522D01*
X42423000Y-48132522D01*
G37*
X42423000Y-48132522D02*
X42723000Y-48132522D01*
X42809894Y-48116172D01*
X42767440Y-48329603D01*
X42767440Y-48562780D01*
X42725338Y-48562780D01*
X42725338Y-48681989D01*
X42589892Y-48602590D01*
X42316353Y-48732187D01*
X42083307Y-48991772D01*
X41967340Y-49320780D01*
X41967340Y-49620780D01*
X42725340Y-49620780D01*
X42725340Y-49600780D01*
X42979340Y-49600780D01*
X42979340Y-49620780D01*
X42999340Y-49620780D01*
X42999340Y-49874780D01*
X42979340Y-49874780D01*
X42979340Y-49894780D01*
X42725340Y-49894780D01*
X42725340Y-49874780D01*
X41967340Y-49874780D01*
X41967340Y-50174780D01*
X42007952Y-50290000D01*
X41867249Y-50290000D01*
X41334577Y-49757329D01*
X41635465Y-49575280D01*
X41889488Y-49229778D01*
X41991957Y-48813366D01*
X41877412Y-48641000D01*
X41021000Y-48641000D01*
X41021000Y-48661000D01*
X40767000Y-48661000D01*
X40767000Y-48641000D01*
X40747000Y-48641000D01*
X40747000Y-48387000D01*
X40767000Y-48387000D01*
X40767000Y-48367000D01*
X41021000Y-48367000D01*
X41021000Y-48387000D01*
X41877412Y-48387000D01*
X41991957Y-48214634D01*
X41971751Y-48132522D01*
X42223000Y-48132522D01*
X42326671Y-48113015D01*
X42423000Y-48132522D01*
G36*
X48133000Y-48387000D02*
X48153000Y-48387000D01*
X48153000Y-48641000D01*
X48133000Y-48641000D01*
X48133000Y-48661000D01*
X47879000Y-48661000D01*
X47879000Y-48641000D01*
X47859000Y-48641000D01*
X47859000Y-48387000D01*
X47879000Y-48387000D01*
X47879000Y-48367000D01*
X48133000Y-48367000D01*
X48133000Y-48387000D01*
X48133000Y-48387000D01*
G37*
X48133000Y-48387000D02*
X48153000Y-48387000D01*
X48153000Y-48641000D01*
X48133000Y-48641000D01*
X48133000Y-48661000D01*
X47879000Y-48661000D01*
X47879000Y-48641000D01*
X47859000Y-48641000D01*
X47859000Y-48387000D01*
X47879000Y-48387000D01*
X47879000Y-48367000D01*
X48133000Y-48367000D01*
X48133000Y-48387000D01*
G36*
X41179478Y-47223494D02*
X41021002Y-47296045D01*
X41021002Y-47179000D01*
X40976000Y-47179000D01*
X40976000Y-47101804D01*
X40983000Y-47081000D01*
X40983000Y-47062000D01*
X40996000Y-47062000D01*
X40996000Y-47042000D01*
X41179478Y-47042000D01*
X41179478Y-47223494D01*
X41179478Y-47223494D01*
G37*
X41179478Y-47223494D02*
X41021002Y-47296045D01*
X41021002Y-47179000D01*
X40976000Y-47179000D01*
X40976000Y-47101804D01*
X40983000Y-47081000D01*
X40983000Y-47062000D01*
X40996000Y-47062000D01*
X40996000Y-47042000D01*
X41179478Y-47042000D01*
X41179478Y-47223494D01*
G36*
X47650000Y-47062000D02*
X47663000Y-47062000D01*
X47663000Y-47081000D01*
X47670000Y-47101804D01*
X47670000Y-47124337D01*
X47608234Y-47134076D01*
X47466522Y-47218030D01*
X47466522Y-47042000D01*
X47650000Y-47042000D01*
X47650000Y-47062000D01*
X47650000Y-47062000D01*
G37*
X47650000Y-47062000D02*
X47663000Y-47062000D01*
X47663000Y-47081000D01*
X47670000Y-47101804D01*
X47670000Y-47124337D01*
X47608234Y-47134076D01*
X47466522Y-47218030D01*
X47466522Y-47042000D01*
X47650000Y-47042000D01*
X47650000Y-47062000D01*
G36*
X47663000Y-42097000D02*
X48521000Y-42097000D01*
X48521000Y-42077000D01*
X48639000Y-42077000D01*
X48639000Y-42371000D01*
X48521000Y-42371000D01*
X48521000Y-42351000D01*
X48476221Y-42351000D01*
X48403766Y-42308076D01*
X48315744Y-42294197D01*
X48177471Y-42351000D01*
X47834529Y-42351000D01*
X47696256Y-42294197D01*
X47608234Y-42308076D01*
X47206109Y-42546305D01*
X46925760Y-42920286D01*
X46809868Y-43373084D01*
X46923189Y-43561000D01*
X47879000Y-43561000D01*
X47879000Y-43124232D01*
X48041302Y-43310303D01*
X48133000Y-43354575D01*
X48133000Y-43561000D01*
X48153000Y-43561000D01*
X48153000Y-43815000D01*
X48133000Y-43815000D01*
X48133000Y-43835000D01*
X47879000Y-43835000D01*
X47879000Y-43815000D01*
X46923189Y-43815000D01*
X46809868Y-44002916D01*
X46925760Y-44455714D01*
X47206109Y-44829695D01*
X47608234Y-45067924D01*
X47696256Y-45081803D01*
X47878998Y-45006732D01*
X47878998Y-45123000D01*
X47993063Y-45123000D01*
X47786579Y-45359724D01*
X47777910Y-45385487D01*
X47765290Y-45366599D01*
X47518728Y-45201852D01*
X47227889Y-45144000D01*
X47198111Y-45144000D01*
X46907272Y-45201852D01*
X46660710Y-45366599D01*
X46547548Y-45535958D01*
X46035295Y-45023705D01*
X45832369Y-44888113D01*
X45593000Y-44840500D01*
X43053000Y-44840500D01*
X42813632Y-44888113D01*
X42746296Y-44933106D01*
X42610704Y-45023705D01*
X42098452Y-45535958D01*
X41985290Y-45366599D01*
X41738728Y-45201852D01*
X41447889Y-45144000D01*
X41418111Y-45144000D01*
X41127272Y-45201852D01*
X40880710Y-45366599D01*
X40868090Y-45385487D01*
X40859421Y-45359724D01*
X40608364Y-45071899D01*
X40767000Y-45006731D01*
X40767000Y-43815000D01*
X41021000Y-43815000D01*
X41021000Y-45006731D01*
X41203744Y-45081803D01*
X41291766Y-45067924D01*
X41693891Y-44829695D01*
X41974240Y-44455714D01*
X42090132Y-44002916D01*
X41976811Y-43815000D01*
X41021000Y-43815000D01*
X40767000Y-43815000D01*
X40747000Y-43815000D01*
X40747000Y-43561000D01*
X40767000Y-43561000D01*
X40767000Y-43124232D01*
X40859421Y-43018276D01*
X40983000Y-42651000D01*
X40983000Y-42369269D01*
X41021000Y-42369269D01*
X41021000Y-43561000D01*
X41976811Y-43561000D01*
X42090132Y-43373084D01*
X41974240Y-42920286D01*
X41693891Y-42546305D01*
X41291766Y-42308076D01*
X41203744Y-42294197D01*
X41021000Y-42369269D01*
X40983000Y-42369269D01*
X40983000Y-42351000D01*
X40722529Y-42351000D01*
X40584256Y-42294197D01*
X40496234Y-42308076D01*
X40423779Y-42351000D01*
X40125000Y-42351000D01*
X40125000Y-42371000D01*
X40007000Y-42371000D01*
X40007000Y-42077000D01*
X40125000Y-42077000D01*
X40125000Y-42097000D01*
X40983000Y-42097000D01*
X40983000Y-42039000D01*
X47663000Y-42039000D01*
X47663000Y-42097000D01*
X47663000Y-42097000D01*
G37*
X47663000Y-42097000D02*
X48521000Y-42097000D01*
X48521000Y-42077000D01*
X48639000Y-42077000D01*
X48639000Y-42371000D01*
X48521000Y-42371000D01*
X48521000Y-42351000D01*
X48476221Y-42351000D01*
X48403766Y-42308076D01*
X48315744Y-42294197D01*
X48177471Y-42351000D01*
X47834529Y-42351000D01*
X47696256Y-42294197D01*
X47608234Y-42308076D01*
X47206109Y-42546305D01*
X46925760Y-42920286D01*
X46809868Y-43373084D01*
X46923189Y-43561000D01*
X47879000Y-43561000D01*
X47879000Y-43124232D01*
X48041302Y-43310303D01*
X48133000Y-43354575D01*
X48133000Y-43561000D01*
X48153000Y-43561000D01*
X48153000Y-43815000D01*
X48133000Y-43815000D01*
X48133000Y-43835000D01*
X47879000Y-43835000D01*
X47879000Y-43815000D01*
X46923189Y-43815000D01*
X46809868Y-44002916D01*
X46925760Y-44455714D01*
X47206109Y-44829695D01*
X47608234Y-45067924D01*
X47696256Y-45081803D01*
X47878998Y-45006732D01*
X47878998Y-45123000D01*
X47993063Y-45123000D01*
X47786579Y-45359724D01*
X47777910Y-45385487D01*
X47765290Y-45366599D01*
X47518728Y-45201852D01*
X47227889Y-45144000D01*
X47198111Y-45144000D01*
X46907272Y-45201852D01*
X46660710Y-45366599D01*
X46547548Y-45535958D01*
X46035295Y-45023705D01*
X45832369Y-44888113D01*
X45593000Y-44840500D01*
X43053000Y-44840500D01*
X42813632Y-44888113D01*
X42746296Y-44933106D01*
X42610704Y-45023705D01*
X42098452Y-45535958D01*
X41985290Y-45366599D01*
X41738728Y-45201852D01*
X41447889Y-45144000D01*
X41418111Y-45144000D01*
X41127272Y-45201852D01*
X40880710Y-45366599D01*
X40868090Y-45385487D01*
X40859421Y-45359724D01*
X40608364Y-45071899D01*
X40767000Y-45006731D01*
X40767000Y-43815000D01*
X41021000Y-43815000D01*
X41021000Y-45006731D01*
X41203744Y-45081803D01*
X41291766Y-45067924D01*
X41693891Y-44829695D01*
X41974240Y-44455714D01*
X42090132Y-44002916D01*
X41976811Y-43815000D01*
X41021000Y-43815000D01*
X40767000Y-43815000D01*
X40747000Y-43815000D01*
X40747000Y-43561000D01*
X40767000Y-43561000D01*
X40767000Y-43124232D01*
X40859421Y-43018276D01*
X40983000Y-42651000D01*
X40983000Y-42369269D01*
X41021000Y-42369269D01*
X41021000Y-43561000D01*
X41976811Y-43561000D01*
X42090132Y-43373084D01*
X41974240Y-42920286D01*
X41693891Y-42546305D01*
X41291766Y-42308076D01*
X41203744Y-42294197D01*
X41021000Y-42369269D01*
X40983000Y-42369269D01*
X40983000Y-42351000D01*
X40722529Y-42351000D01*
X40584256Y-42294197D01*
X40496234Y-42308076D01*
X40423779Y-42351000D01*
X40125000Y-42351000D01*
X40125000Y-42371000D01*
X40007000Y-42371000D01*
X40007000Y-42077000D01*
X40125000Y-42077000D01*
X40125000Y-42097000D01*
X40983000Y-42097000D01*
X40983000Y-42039000D01*
X47663000Y-42039000D01*
X47663000Y-42097000D01*
M02*
