G04 #@! TF.FileFunction,Legend,Top*
%FSLAX46Y46*%
G04 Gerber Fmt 4.6, Leading zero omitted, Abs format (unit mm)*
G04 Created by KiCad (PCBNEW 4.0.7) date 02/03/18 20:49:25*
%MOMM*%
%LPD*%
G01*
G04 APERTURE LIST*
%ADD10C,0.100000*%
%ADD11C,0.150000*%
%ADD12C,0.127000*%
G04 APERTURE END LIST*
D10*
D11*
X40550000Y-40650000D02*
X40550000Y-39850000D01*
X40550000Y-39850000D02*
X48350000Y-39850000D01*
X48350000Y-39850000D02*
X48350000Y-40750000D01*
D12*
X48348900Y-49697640D02*
X40551100Y-49697640D01*
X48348900Y-40700960D02*
X48348900Y-49697640D01*
X40551100Y-40700960D02*
X40551100Y-49697640D01*
D11*
X39853000Y-39624000D02*
X39853000Y-41624000D01*
X39853000Y-39624000D02*
X41853000Y-39624000D01*
X48793000Y-39624000D02*
X48793000Y-41624000D01*
X48793000Y-39624000D02*
X46793000Y-39624000D01*
X47721073Y-48133000D02*
G75*
G03X47721073Y-48133000I-198073J0D01*
G01*
X47611500Y-48133000D02*
G75*
G03X47611500Y-48133000I-88500J0D01*
G01*
X47561500Y-48133000D02*
G75*
G03X47561500Y-48133000I-38500J0D01*
G01*
X42526857Y-43234429D02*
X42526857Y-44468143D01*
X42599429Y-44613286D01*
X42672000Y-44685857D01*
X42817143Y-44758429D01*
X43107429Y-44758429D01*
X43252571Y-44685857D01*
X43325143Y-44613286D01*
X43397714Y-44468143D01*
X43397714Y-43234429D01*
X44050857Y-44685857D02*
X44268571Y-44758429D01*
X44631428Y-44758429D01*
X44776571Y-44685857D01*
X44849142Y-44613286D01*
X44921714Y-44468143D01*
X44921714Y-44323000D01*
X44849142Y-44177857D01*
X44776571Y-44105286D01*
X44631428Y-44032714D01*
X44341142Y-43960143D01*
X44196000Y-43887571D01*
X44123428Y-43815000D01*
X44050857Y-43669857D01*
X44050857Y-43524714D01*
X44123428Y-43379571D01*
X44196000Y-43307000D01*
X44341142Y-43234429D01*
X44704000Y-43234429D01*
X44921714Y-43307000D01*
X46082857Y-43960143D02*
X46300571Y-44032714D01*
X46373143Y-44105286D01*
X46445714Y-44250429D01*
X46445714Y-44468143D01*
X46373143Y-44613286D01*
X46300571Y-44685857D01*
X46155429Y-44758429D01*
X45574857Y-44758429D01*
X45574857Y-43234429D01*
X46082857Y-43234429D01*
X46228000Y-43307000D01*
X46300571Y-43379571D01*
X46373143Y-43524714D01*
X46373143Y-43669857D01*
X46300571Y-43815000D01*
X46228000Y-43887571D01*
X46082857Y-43960143D01*
X45574857Y-43960143D01*
M02*
