G04 #@! TF.FileFunction,Soldermask,Bot*
%FSLAX46Y46*%
G04 Gerber Fmt 4.6, Leading zero omitted, Abs format (unit mm)*
G04 Created by KiCad (PCBNEW 4.0.7) date 02/03/18 20:49:25*
%MOMM*%
%LPD*%
G01*
G04 APERTURE LIST*
%ADD10C,0.100000*%
%ADD11C,0.010000*%
%ADD12O,1.300000X1.900000*%
%ADD13O,1.300000X1.500000*%
%ADD14O,1.900000X2.400000*%
%ADD15O,1.700000X2.200000*%
%ADD16O,1.500000X2.100000*%
%ADD17O,1.500000X2.600000*%
G04 APERTURE END LIST*
D10*
D11*
G36*
X44327174Y-41722213D02*
X44355266Y-41721823D01*
X44355331Y-41721823D01*
X44413274Y-41723353D01*
X44568880Y-41735561D01*
X44724147Y-41759570D01*
X44878429Y-41795523D01*
X45031080Y-41843567D01*
X45179629Y-41903086D01*
X45321752Y-41973002D01*
X45457061Y-42052783D01*
X45585168Y-42141897D01*
X45705685Y-42239812D01*
X45818222Y-42345996D01*
X45922393Y-42459918D01*
X46017809Y-42581045D01*
X46104081Y-42708846D01*
X46180822Y-42842789D01*
X46247643Y-42982342D01*
X46304155Y-43126972D01*
X46349972Y-43276148D01*
X46384704Y-43429339D01*
X46407963Y-43586011D01*
X46419361Y-43745634D01*
X46418567Y-43905661D01*
X46405742Y-44063530D01*
X46381240Y-44218683D01*
X46345411Y-44370565D01*
X46298608Y-44518619D01*
X46241184Y-44662289D01*
X46173489Y-44801019D01*
X46095877Y-44934252D01*
X46008700Y-45061432D01*
X45912309Y-45182002D01*
X45807056Y-45295408D01*
X45693295Y-45401091D01*
X45571376Y-45498496D01*
X45441652Y-45587066D01*
X45304475Y-45666246D01*
X45160198Y-45735478D01*
X45058885Y-45776269D01*
X44956361Y-45811381D01*
X44852830Y-45840885D01*
X44748495Y-45864854D01*
X44643559Y-45883359D01*
X44538224Y-45896473D01*
X44432695Y-45904268D01*
X44327174Y-45906816D01*
X44327174Y-45470309D01*
X44493967Y-45462442D01*
X44660272Y-45437456D01*
X44824838Y-45395009D01*
X44986418Y-45334762D01*
X45085471Y-45287844D01*
X45180242Y-45235019D01*
X45270568Y-45176571D01*
X45356283Y-45112781D01*
X45437223Y-45043932D01*
X45513224Y-44970305D01*
X45584120Y-44892184D01*
X45649748Y-44809850D01*
X45709942Y-44723586D01*
X45764537Y-44633673D01*
X45813370Y-44540395D01*
X45856274Y-44444033D01*
X45893087Y-44344870D01*
X45923643Y-44243188D01*
X45947777Y-44139269D01*
X45965325Y-44033395D01*
X44545533Y-44033395D01*
X44545533Y-45190019D01*
X44538191Y-45226363D01*
X44518180Y-45256042D01*
X44488501Y-45276053D01*
X44452157Y-45283395D01*
X44327174Y-45283395D01*
X44327174Y-42346644D01*
X44452157Y-42346644D01*
X44488501Y-42353985D01*
X44518180Y-42373997D01*
X44538191Y-42403676D01*
X44545533Y-42440019D01*
X44545533Y-43596644D01*
X45964950Y-43596644D01*
X45945890Y-43483288D01*
X45919332Y-43372351D01*
X45885498Y-43264159D01*
X45844609Y-43159035D01*
X45796886Y-43057304D01*
X45742551Y-42959289D01*
X45681826Y-42865316D01*
X45614931Y-42775708D01*
X45542089Y-42690789D01*
X45463519Y-42610885D01*
X45379444Y-42536319D01*
X45290085Y-42467415D01*
X45195664Y-42404498D01*
X45096401Y-42347893D01*
X44992519Y-42297922D01*
X44884237Y-42254912D01*
X44748045Y-42212742D01*
X44610418Y-42182692D01*
X44472046Y-42164578D01*
X44333619Y-42158216D01*
X44327174Y-42158460D01*
X44327174Y-41722213D01*
X44327174Y-41722213D01*
X44327174Y-41722213D01*
G37*
X44327174Y-41722213D02*
X44355266Y-41721823D01*
X44355331Y-41721823D01*
X44413274Y-41723353D01*
X44568880Y-41735561D01*
X44724147Y-41759570D01*
X44878429Y-41795523D01*
X45031080Y-41843567D01*
X45179629Y-41903086D01*
X45321752Y-41973002D01*
X45457061Y-42052783D01*
X45585168Y-42141897D01*
X45705685Y-42239812D01*
X45818222Y-42345996D01*
X45922393Y-42459918D01*
X46017809Y-42581045D01*
X46104081Y-42708846D01*
X46180822Y-42842789D01*
X46247643Y-42982342D01*
X46304155Y-43126972D01*
X46349972Y-43276148D01*
X46384704Y-43429339D01*
X46407963Y-43586011D01*
X46419361Y-43745634D01*
X46418567Y-43905661D01*
X46405742Y-44063530D01*
X46381240Y-44218683D01*
X46345411Y-44370565D01*
X46298608Y-44518619D01*
X46241184Y-44662289D01*
X46173489Y-44801019D01*
X46095877Y-44934252D01*
X46008700Y-45061432D01*
X45912309Y-45182002D01*
X45807056Y-45295408D01*
X45693295Y-45401091D01*
X45571376Y-45498496D01*
X45441652Y-45587066D01*
X45304475Y-45666246D01*
X45160198Y-45735478D01*
X45058885Y-45776269D01*
X44956361Y-45811381D01*
X44852830Y-45840885D01*
X44748495Y-45864854D01*
X44643559Y-45883359D01*
X44538224Y-45896473D01*
X44432695Y-45904268D01*
X44327174Y-45906816D01*
X44327174Y-45470309D01*
X44493967Y-45462442D01*
X44660272Y-45437456D01*
X44824838Y-45395009D01*
X44986418Y-45334762D01*
X45085471Y-45287844D01*
X45180242Y-45235019D01*
X45270568Y-45176571D01*
X45356283Y-45112781D01*
X45437223Y-45043932D01*
X45513224Y-44970305D01*
X45584120Y-44892184D01*
X45649748Y-44809850D01*
X45709942Y-44723586D01*
X45764537Y-44633673D01*
X45813370Y-44540395D01*
X45856274Y-44444033D01*
X45893087Y-44344870D01*
X45923643Y-44243188D01*
X45947777Y-44139269D01*
X45965325Y-44033395D01*
X44545533Y-44033395D01*
X44545533Y-45190019D01*
X44538191Y-45226363D01*
X44518180Y-45256042D01*
X44488501Y-45276053D01*
X44452157Y-45283395D01*
X44327174Y-45283395D01*
X44327174Y-42346644D01*
X44452157Y-42346644D01*
X44488501Y-42353985D01*
X44518180Y-42373997D01*
X44538191Y-42403676D01*
X44545533Y-42440019D01*
X44545533Y-43596644D01*
X45964950Y-43596644D01*
X45945890Y-43483288D01*
X45919332Y-43372351D01*
X45885498Y-43264159D01*
X45844609Y-43159035D01*
X45796886Y-43057304D01*
X45742551Y-42959289D01*
X45681826Y-42865316D01*
X45614931Y-42775708D01*
X45542089Y-42690789D01*
X45463519Y-42610885D01*
X45379444Y-42536319D01*
X45290085Y-42467415D01*
X45195664Y-42404498D01*
X45096401Y-42347893D01*
X44992519Y-42297922D01*
X44884237Y-42254912D01*
X44748045Y-42212742D01*
X44610418Y-42182692D01*
X44472046Y-42164578D01*
X44333619Y-42158216D01*
X44327174Y-42158460D01*
X44327174Y-41722213D01*
X44327174Y-41722213D01*
G36*
X44327174Y-41722213D02*
X44327174Y-42158460D01*
X44192333Y-42164214D01*
X44059030Y-42181245D01*
X43927860Y-42209260D01*
X43799418Y-42247968D01*
X43674298Y-42297075D01*
X43553094Y-42356289D01*
X43436402Y-42425318D01*
X43324814Y-42503870D01*
X44108765Y-43287822D01*
X44108765Y-42440019D01*
X44116109Y-42403672D01*
X44136124Y-42373991D01*
X44165809Y-42353981D01*
X44202157Y-42346644D01*
X44327174Y-42346644D01*
X44327174Y-45283395D01*
X44202157Y-45283395D01*
X44165809Y-45276058D01*
X44136124Y-45256047D01*
X44116109Y-45226367D01*
X44108765Y-45190019D01*
X44108765Y-44342200D01*
X43735068Y-44715849D01*
X43768222Y-44749003D01*
X43781803Y-44766253D01*
X43790889Y-44785920D01*
X43795202Y-44807151D01*
X43794461Y-44829092D01*
X43788620Y-44850255D01*
X43778168Y-44869232D01*
X43763626Y-44885291D01*
X43745517Y-44897701D01*
X43317131Y-45122539D01*
X43429832Y-45202450D01*
X43547753Y-45272240D01*
X43670219Y-45331764D01*
X43796559Y-45380876D01*
X43926097Y-45419431D01*
X44058161Y-45447285D01*
X44192078Y-45464293D01*
X44327174Y-45470309D01*
X44327174Y-45906816D01*
X44225261Y-45904302D01*
X44123736Y-45896883D01*
X44022784Y-45884588D01*
X43922591Y-45867450D01*
X43823341Y-45845498D01*
X43725221Y-45818765D01*
X43628417Y-45787281D01*
X43533113Y-45751078D01*
X43439495Y-45710186D01*
X43347748Y-45664637D01*
X43258059Y-45614461D01*
X43170613Y-45559690D01*
X43085595Y-45500355D01*
X43003191Y-45436487D01*
X42923586Y-45368117D01*
X42846965Y-45295276D01*
X42829512Y-45271086D01*
X42820692Y-45243322D01*
X42820842Y-45214192D01*
X42830299Y-45185901D01*
X43244475Y-44396643D01*
X43256888Y-44378540D01*
X43272947Y-44364004D01*
X43291922Y-44353557D01*
X43313081Y-44347720D01*
X43335019Y-44346980D01*
X43356246Y-44351293D01*
X43375910Y-44360377D01*
X43393157Y-44373955D01*
X43426311Y-44407109D01*
X44018401Y-43815019D01*
X42761581Y-42558183D01*
X42741691Y-42528703D01*
X42734327Y-42495079D01*
X42739606Y-42461066D01*
X42757643Y-42430416D01*
X42835422Y-42346937D01*
X42916980Y-42268409D01*
X43002089Y-42194892D01*
X43090518Y-42126444D01*
X43182038Y-42063126D01*
X43276421Y-42004998D01*
X43373435Y-41952118D01*
X43472853Y-41904546D01*
X43574444Y-41862342D01*
X43677979Y-41825565D01*
X43783229Y-41794275D01*
X43889965Y-41768532D01*
X43997956Y-41748394D01*
X44106975Y-41733922D01*
X44216790Y-41725176D01*
X44327174Y-41722213D01*
X44327174Y-41722213D01*
X44327174Y-41722213D01*
G37*
X44327174Y-41722213D02*
X44327174Y-42158460D01*
X44192333Y-42164214D01*
X44059030Y-42181245D01*
X43927860Y-42209260D01*
X43799418Y-42247968D01*
X43674298Y-42297075D01*
X43553094Y-42356289D01*
X43436402Y-42425318D01*
X43324814Y-42503870D01*
X44108765Y-43287822D01*
X44108765Y-42440019D01*
X44116109Y-42403672D01*
X44136124Y-42373991D01*
X44165809Y-42353981D01*
X44202157Y-42346644D01*
X44327174Y-42346644D01*
X44327174Y-45283395D01*
X44202157Y-45283395D01*
X44165809Y-45276058D01*
X44136124Y-45256047D01*
X44116109Y-45226367D01*
X44108765Y-45190019D01*
X44108765Y-44342200D01*
X43735068Y-44715849D01*
X43768222Y-44749003D01*
X43781803Y-44766253D01*
X43790889Y-44785920D01*
X43795202Y-44807151D01*
X43794461Y-44829092D01*
X43788620Y-44850255D01*
X43778168Y-44869232D01*
X43763626Y-44885291D01*
X43745517Y-44897701D01*
X43317131Y-45122539D01*
X43429832Y-45202450D01*
X43547753Y-45272240D01*
X43670219Y-45331764D01*
X43796559Y-45380876D01*
X43926097Y-45419431D01*
X44058161Y-45447285D01*
X44192078Y-45464293D01*
X44327174Y-45470309D01*
X44327174Y-45906816D01*
X44225261Y-45904302D01*
X44123736Y-45896883D01*
X44022784Y-45884588D01*
X43922591Y-45867450D01*
X43823341Y-45845498D01*
X43725221Y-45818765D01*
X43628417Y-45787281D01*
X43533113Y-45751078D01*
X43439495Y-45710186D01*
X43347748Y-45664637D01*
X43258059Y-45614461D01*
X43170613Y-45559690D01*
X43085595Y-45500355D01*
X43003191Y-45436487D01*
X42923586Y-45368117D01*
X42846965Y-45295276D01*
X42829512Y-45271086D01*
X42820692Y-45243322D01*
X42820842Y-45214192D01*
X42830299Y-45185901D01*
X43244475Y-44396643D01*
X43256888Y-44378540D01*
X43272947Y-44364004D01*
X43291922Y-44353557D01*
X43313081Y-44347720D01*
X43335019Y-44346980D01*
X43356246Y-44351293D01*
X43375910Y-44360377D01*
X43393157Y-44373955D01*
X43426311Y-44407109D01*
X44018401Y-43815019D01*
X42761581Y-42558183D01*
X42741691Y-42528703D01*
X42734327Y-42495079D01*
X42739606Y-42461066D01*
X42757643Y-42430416D01*
X42835422Y-42346937D01*
X42916980Y-42268409D01*
X43002089Y-42194892D01*
X43090518Y-42126444D01*
X43182038Y-42063126D01*
X43276421Y-42004998D01*
X43373435Y-41952118D01*
X43472853Y-41904546D01*
X43574444Y-41862342D01*
X43677979Y-41825565D01*
X43783229Y-41794275D01*
X43889965Y-41768532D01*
X43997956Y-41748394D01*
X44106975Y-41733922D01*
X44216790Y-41725176D01*
X44327174Y-41722213D01*
X44327174Y-41722213D01*
D12*
X44450000Y-49747780D03*
D13*
X45247560Y-48448900D03*
D12*
X42852340Y-49747780D03*
D13*
X43652440Y-48448900D03*
D14*
X40894000Y-43688000D03*
X48006000Y-43688000D03*
D12*
X46047660Y-49747780D03*
D14*
X48006000Y-48514000D03*
D15*
X40894000Y-48514000D03*
D16*
X39998000Y-42224000D03*
X48648000Y-42224000D03*
D17*
X39998000Y-46404000D03*
X48648000Y-46404000D03*
M02*
