G04 #@! TF.FileFunction,Copper,L2,Bot,Signal*
%FSLAX46Y46*%
G04 Gerber Fmt 4.6, Leading zero omitted, Abs format (unit mm)*
G04 Created by KiCad (PCBNEW 4.0.7) date 02/03/18 20:49:25*
%MOMM*%
%LPD*%
G01*
G04 APERTURE LIST*
%ADD10C,0.100000*%
%ADD11C,0.010000*%
%ADD12O,0.900000X1.500000*%
%ADD13O,0.900000X1.100000*%
%ADD14O,1.500000X2.000000*%
%ADD15O,1.300000X1.800000*%
%ADD16O,1.100000X1.700000*%
%ADD17O,1.100000X2.200000*%
%ADD18C,0.600000*%
%ADD19C,0.250000*%
%ADD20C,0.381000*%
%ADD21C,0.254000*%
G04 APERTURE END LIST*
D10*
D11*
G36*
X44327174Y-41815573D02*
X44354029Y-41815198D01*
X44409498Y-41816712D01*
X44558137Y-41828363D01*
X44706459Y-41851275D01*
X44853860Y-41885604D01*
X44999732Y-41931507D01*
X45141688Y-41988380D01*
X45277495Y-42055178D01*
X45406784Y-42131395D01*
X45529184Y-42216524D01*
X45644326Y-42310057D01*
X45751839Y-42411489D01*
X45851355Y-42520311D01*
X45942502Y-42636018D01*
X46024912Y-42758103D01*
X46098214Y-42886058D01*
X46162038Y-43019377D01*
X46216015Y-43157554D01*
X46259775Y-43300080D01*
X46292947Y-43446451D01*
X46315162Y-43596157D01*
X46326051Y-43748694D01*
X46325295Y-43901618D01*
X46313050Y-44052469D01*
X46289651Y-44200717D01*
X46255433Y-44345833D01*
X46210731Y-44487285D01*
X46155882Y-44624544D01*
X46091221Y-44757078D01*
X46017082Y-44884359D01*
X45933803Y-45005855D01*
X45841718Y-45121036D01*
X45741162Y-45229373D01*
X45632472Y-45330333D01*
X45515982Y-45423389D01*
X45392028Y-45508008D01*
X45260947Y-45583661D01*
X45123072Y-45649817D01*
X45026260Y-45688798D01*
X44928296Y-45722353D01*
X44829375Y-45750550D01*
X44729688Y-45773459D01*
X44629431Y-45791149D01*
X44528798Y-45803687D01*
X44427980Y-45811143D01*
X44327174Y-45813587D01*
X44327174Y-45564140D01*
X44503508Y-45555408D01*
X44679247Y-45528851D01*
X44853046Y-45484021D01*
X44938798Y-45454614D01*
X45023560Y-45420472D01*
X45134198Y-45367836D01*
X45239860Y-45308241D01*
X45340325Y-45242039D01*
X45435371Y-45169580D01*
X45524777Y-45091217D01*
X45608320Y-45007300D01*
X45685779Y-44918181D01*
X45756932Y-44824211D01*
X45821557Y-44725743D01*
X45879433Y-44623126D01*
X45930338Y-44516713D01*
X45974050Y-44406856D01*
X46010347Y-44293904D01*
X46039008Y-44178211D01*
X46059811Y-44060126D01*
X46072535Y-43940003D01*
X44452174Y-43940003D01*
X44452174Y-45190003D01*
X44327174Y-45190003D01*
X44327174Y-42440003D01*
X44452174Y-42440003D01*
X44452174Y-43690003D01*
X46072681Y-43690003D01*
X46058778Y-43561708D01*
X46035725Y-43435964D01*
X46003816Y-43313169D01*
X45963342Y-43193723D01*
X45914594Y-43078026D01*
X45857864Y-42966476D01*
X45793442Y-42859473D01*
X45721621Y-42757417D01*
X45642692Y-42660706D01*
X45556947Y-42569740D01*
X45464677Y-42484919D01*
X45366173Y-42406641D01*
X45261727Y-42335307D01*
X45151630Y-42271315D01*
X45036174Y-42215065D01*
X44915650Y-42166956D01*
X44771834Y-42122433D01*
X44626457Y-42090703D01*
X44480266Y-42071575D01*
X44334010Y-42064857D01*
X44327174Y-42065133D01*
X44327174Y-41815573D01*
X44327174Y-41815573D01*
X44327174Y-41815573D01*
G37*
X44327174Y-41815573D02*
X44354029Y-41815198D01*
X44409498Y-41816712D01*
X44558137Y-41828363D01*
X44706459Y-41851275D01*
X44853860Y-41885604D01*
X44999732Y-41931507D01*
X45141688Y-41988380D01*
X45277495Y-42055178D01*
X45406784Y-42131395D01*
X45529184Y-42216524D01*
X45644326Y-42310057D01*
X45751839Y-42411489D01*
X45851355Y-42520311D01*
X45942502Y-42636018D01*
X46024912Y-42758103D01*
X46098214Y-42886058D01*
X46162038Y-43019377D01*
X46216015Y-43157554D01*
X46259775Y-43300080D01*
X46292947Y-43446451D01*
X46315162Y-43596157D01*
X46326051Y-43748694D01*
X46325295Y-43901618D01*
X46313050Y-44052469D01*
X46289651Y-44200717D01*
X46255433Y-44345833D01*
X46210731Y-44487285D01*
X46155882Y-44624544D01*
X46091221Y-44757078D01*
X46017082Y-44884359D01*
X45933803Y-45005855D01*
X45841718Y-45121036D01*
X45741162Y-45229373D01*
X45632472Y-45330333D01*
X45515982Y-45423389D01*
X45392028Y-45508008D01*
X45260947Y-45583661D01*
X45123072Y-45649817D01*
X45026260Y-45688798D01*
X44928296Y-45722353D01*
X44829375Y-45750550D01*
X44729688Y-45773459D01*
X44629431Y-45791149D01*
X44528798Y-45803687D01*
X44427980Y-45811143D01*
X44327174Y-45813587D01*
X44327174Y-45564140D01*
X44503508Y-45555408D01*
X44679247Y-45528851D01*
X44853046Y-45484021D01*
X44938798Y-45454614D01*
X45023560Y-45420472D01*
X45134198Y-45367836D01*
X45239860Y-45308241D01*
X45340325Y-45242039D01*
X45435371Y-45169580D01*
X45524777Y-45091217D01*
X45608320Y-45007300D01*
X45685779Y-44918181D01*
X45756932Y-44824211D01*
X45821557Y-44725743D01*
X45879433Y-44623126D01*
X45930338Y-44516713D01*
X45974050Y-44406856D01*
X46010347Y-44293904D01*
X46039008Y-44178211D01*
X46059811Y-44060126D01*
X46072535Y-43940003D01*
X44452174Y-43940003D01*
X44452174Y-45190003D01*
X44327174Y-45190003D01*
X44327174Y-42440003D01*
X44452174Y-42440003D01*
X44452174Y-43690003D01*
X46072681Y-43690003D01*
X46058778Y-43561708D01*
X46035725Y-43435964D01*
X46003816Y-43313169D01*
X45963342Y-43193723D01*
X45914594Y-43078026D01*
X45857864Y-42966476D01*
X45793442Y-42859473D01*
X45721621Y-42757417D01*
X45642692Y-42660706D01*
X45556947Y-42569740D01*
X45464677Y-42484919D01*
X45366173Y-42406641D01*
X45261727Y-42335307D01*
X45151630Y-42271315D01*
X45036174Y-42215065D01*
X44915650Y-42166956D01*
X44771834Y-42122433D01*
X44626457Y-42090703D01*
X44480266Y-42071575D01*
X44334010Y-42064857D01*
X44327174Y-42065133D01*
X44327174Y-41815573D01*
X44327174Y-41815573D01*
G36*
X44327174Y-41815573D02*
X44327174Y-42065133D01*
X44171383Y-42072085D01*
X44017350Y-42092790D01*
X43865990Y-42127011D01*
X43718223Y-42174507D01*
X43574964Y-42235042D01*
X43437133Y-42308377D01*
X43305646Y-42394273D01*
X43181422Y-42492493D01*
X44202174Y-43513245D01*
X44202174Y-42440003D01*
X44327174Y-42440003D01*
X44327174Y-45190003D01*
X44202174Y-45190003D01*
X44202174Y-44116810D01*
X43603053Y-44715882D01*
X43702174Y-44815003D01*
X43146607Y-45106604D01*
X43273890Y-45212393D01*
X43409035Y-45304645D01*
X43551009Y-45383187D01*
X43698780Y-45447843D01*
X43851315Y-45498440D01*
X44007581Y-45534805D01*
X44166545Y-45556763D01*
X44327174Y-45564140D01*
X44327174Y-45813587D01*
X44132815Y-45804112D01*
X43940651Y-45776001D01*
X43752094Y-45729492D01*
X43659611Y-45699412D01*
X43568561Y-45664821D01*
X43479121Y-45625749D01*
X43391467Y-45582226D01*
X43305776Y-45534280D01*
X43222226Y-45481942D01*
X43140993Y-45425242D01*
X43062254Y-45364208D01*
X42986185Y-45298871D01*
X42912965Y-45229261D01*
X43327174Y-44440003D01*
X43426295Y-44539124D01*
X44150416Y-43815003D01*
X42827662Y-42492200D01*
X42901991Y-42412424D01*
X42979927Y-42337383D01*
X43061252Y-42267133D01*
X43145745Y-42201731D01*
X43233189Y-42141234D01*
X43323365Y-42085698D01*
X43416053Y-42035178D01*
X43511034Y-41989732D01*
X43608090Y-41949416D01*
X43707001Y-41914286D01*
X43807549Y-41884399D01*
X43909514Y-41859810D01*
X44012679Y-41840577D01*
X44116822Y-41826756D01*
X44221727Y-41818402D01*
X44327174Y-41815573D01*
X44327174Y-41815573D01*
X44327174Y-41815573D01*
G37*
X44327174Y-41815573D02*
X44327174Y-42065133D01*
X44171383Y-42072085D01*
X44017350Y-42092790D01*
X43865990Y-42127011D01*
X43718223Y-42174507D01*
X43574964Y-42235042D01*
X43437133Y-42308377D01*
X43305646Y-42394273D01*
X43181422Y-42492493D01*
X44202174Y-43513245D01*
X44202174Y-42440003D01*
X44327174Y-42440003D01*
X44327174Y-45190003D01*
X44202174Y-45190003D01*
X44202174Y-44116810D01*
X43603053Y-44715882D01*
X43702174Y-44815003D01*
X43146607Y-45106604D01*
X43273890Y-45212393D01*
X43409035Y-45304645D01*
X43551009Y-45383187D01*
X43698780Y-45447843D01*
X43851315Y-45498440D01*
X44007581Y-45534805D01*
X44166545Y-45556763D01*
X44327174Y-45564140D01*
X44327174Y-45813587D01*
X44132815Y-45804112D01*
X43940651Y-45776001D01*
X43752094Y-45729492D01*
X43659611Y-45699412D01*
X43568561Y-45664821D01*
X43479121Y-45625749D01*
X43391467Y-45582226D01*
X43305776Y-45534280D01*
X43222226Y-45481942D01*
X43140993Y-45425242D01*
X43062254Y-45364208D01*
X42986185Y-45298871D01*
X42912965Y-45229261D01*
X43327174Y-44440003D01*
X43426295Y-44539124D01*
X44150416Y-43815003D01*
X42827662Y-42492200D01*
X42901991Y-42412424D01*
X42979927Y-42337383D01*
X43061252Y-42267133D01*
X43145745Y-42201731D01*
X43233189Y-42141234D01*
X43323365Y-42085698D01*
X43416053Y-42035178D01*
X43511034Y-41989732D01*
X43608090Y-41949416D01*
X43707001Y-41914286D01*
X43807549Y-41884399D01*
X43909514Y-41859810D01*
X44012679Y-41840577D01*
X44116822Y-41826756D01*
X44221727Y-41818402D01*
X44327174Y-41815573D01*
X44327174Y-41815573D01*
D12*
X44450000Y-49747780D03*
D13*
X45247560Y-48448900D03*
D12*
X42852340Y-49747780D03*
D13*
X43652440Y-48448900D03*
D14*
X40894000Y-43688000D03*
X48006000Y-43688000D03*
D12*
X46047660Y-49747780D03*
D14*
X48006000Y-48514000D03*
D15*
X40894000Y-48514000D03*
D16*
X39998000Y-42224000D03*
X48648000Y-42224000D03*
D17*
X39998000Y-46404000D03*
X48648000Y-46404000D03*
D18*
X43561000Y-46228000D03*
X45085000Y-46228000D03*
D19*
X44069000Y-46228000D02*
X43561000Y-46228000D01*
X44450000Y-46863000D02*
X44450000Y-49547780D01*
X44450000Y-46609000D02*
X44069000Y-46228000D01*
X44450000Y-46863000D02*
X44450000Y-46609000D01*
X45085000Y-46228000D02*
X45085000Y-46863000D01*
X45085000Y-46863000D02*
X45085000Y-48186340D01*
X45085000Y-48186340D02*
X45247560Y-48348900D01*
X45085000Y-48186340D02*
X45247560Y-48348900D01*
D20*
X48006000Y-43688000D02*
X48006000Y-42866000D01*
X48006000Y-42866000D02*
X48648000Y-42224000D01*
X40894000Y-43688000D02*
X40894000Y-43120000D01*
X40894000Y-43120000D02*
X39998000Y-42224000D01*
X48648000Y-46404000D02*
X48648000Y-44330000D01*
X48648000Y-44330000D02*
X48006000Y-43688000D01*
X39998000Y-46404000D02*
X39998000Y-44584000D01*
X39998000Y-44584000D02*
X40894000Y-43688000D01*
D21*
G36*
X42596807Y-42095466D02*
X42589892Y-42105402D01*
X42580068Y-42112481D01*
X42505739Y-42192257D01*
X42464611Y-42258783D01*
X42421158Y-42323812D01*
X42419616Y-42331563D01*
X42415461Y-42338284D01*
X42402924Y-42415474D01*
X42387662Y-42492192D01*
X42389204Y-42499944D01*
X42387937Y-42507743D01*
X42405896Y-42583869D01*
X42421152Y-42660573D01*
X42425541Y-42667142D01*
X42427356Y-42674835D01*
X42473085Y-42738300D01*
X42516529Y-42803321D01*
X43528168Y-43814997D01*
X43340509Y-44002656D01*
X43327174Y-44000003D01*
X43262173Y-44012933D01*
X43196262Y-44019929D01*
X43178560Y-44029564D01*
X43158793Y-44033496D01*
X43103685Y-44070318D01*
X43045472Y-44102003D01*
X43032805Y-44117679D01*
X43016047Y-44128876D01*
X42979226Y-44183982D01*
X42937568Y-44235534D01*
X42523359Y-45024793D01*
X42516079Y-45049463D01*
X42502333Y-45071205D01*
X42491980Y-45131130D01*
X42474769Y-45189453D01*
X42477484Y-45215031D01*
X42473105Y-45240378D01*
X42486472Y-45299702D01*
X42492891Y-45360173D01*
X42505188Y-45382765D01*
X42510842Y-45407859D01*
X42545893Y-45457551D01*
X42574965Y-45510963D01*
X42594973Y-45527131D01*
X42609799Y-45548150D01*
X42683018Y-45617760D01*
X42692544Y-45623782D01*
X42699495Y-45632651D01*
X42775565Y-45697988D01*
X42785334Y-45703495D01*
X42792691Y-45711967D01*
X42871430Y-45773000D01*
X42881421Y-45777988D01*
X42889156Y-45786044D01*
X42935296Y-45818250D01*
X42826127Y-46081158D01*
X42825872Y-46373559D01*
X42937534Y-46643800D01*
X43144112Y-46850740D01*
X43414158Y-46962873D01*
X43706559Y-46963128D01*
X43890000Y-46887331D01*
X43890000Y-47491857D01*
X43652440Y-47444603D01*
X43313765Y-47511970D01*
X43026650Y-47703813D01*
X42834807Y-47990928D01*
X42767440Y-48329603D01*
X42767440Y-48562780D01*
X42725338Y-48562780D01*
X42725338Y-48681989D01*
X42589892Y-48602590D01*
X42316353Y-48732187D01*
X42083307Y-48991772D01*
X41967340Y-49320780D01*
X41967340Y-49620780D01*
X42725340Y-49620780D01*
X42725340Y-49600780D01*
X42979340Y-49600780D01*
X42979340Y-49620780D01*
X42999340Y-49620780D01*
X42999340Y-49874780D01*
X42979340Y-49874780D01*
X42979340Y-49894780D01*
X42725340Y-49894780D01*
X42725340Y-49874780D01*
X41967340Y-49874780D01*
X41967340Y-50174780D01*
X42007952Y-50290000D01*
X41867249Y-50290000D01*
X41334577Y-49757329D01*
X41635465Y-49575280D01*
X41889488Y-49229778D01*
X41991957Y-48813366D01*
X41877412Y-48641000D01*
X41021000Y-48641000D01*
X41021000Y-48661000D01*
X40767000Y-48661000D01*
X40767000Y-48641000D01*
X40747000Y-48641000D01*
X40747000Y-48387000D01*
X40767000Y-48387000D01*
X40767000Y-48367000D01*
X41021000Y-48367000D01*
X41021000Y-48387000D01*
X41877412Y-48387000D01*
X41991957Y-48214634D01*
X41889488Y-47798222D01*
X41635465Y-47452720D01*
X41268561Y-47230729D01*
X41188001Y-47219592D01*
X41021002Y-47296045D01*
X41021002Y-47179000D01*
X40950026Y-47179000D01*
X40983000Y-47081000D01*
X40983000Y-46509749D01*
X41127272Y-46606148D01*
X41418111Y-46664000D01*
X41447889Y-46664000D01*
X41738728Y-46606148D01*
X41985290Y-46441401D01*
X42150037Y-46194839D01*
X42207889Y-45904000D01*
X42150037Y-45613161D01*
X41985290Y-45366599D01*
X41738728Y-45201852D01*
X41447889Y-45144000D01*
X41418111Y-45144000D01*
X41127272Y-45201852D01*
X40880710Y-45366599D01*
X40868090Y-45385487D01*
X40859421Y-45359724D01*
X40608364Y-45071899D01*
X40767000Y-45006731D01*
X40767000Y-43815000D01*
X41021000Y-43815000D01*
X41021000Y-45006731D01*
X41203744Y-45081803D01*
X41291766Y-45067924D01*
X41693891Y-44829695D01*
X41974240Y-44455714D01*
X42090132Y-44002916D01*
X41976811Y-43815000D01*
X41021000Y-43815000D01*
X40767000Y-43815000D01*
X40747000Y-43815000D01*
X40747000Y-43561000D01*
X40767000Y-43561000D01*
X40767000Y-43124232D01*
X40859421Y-43018276D01*
X40983000Y-42651000D01*
X40983000Y-42369269D01*
X41021000Y-42369269D01*
X41021000Y-43561000D01*
X41976811Y-43561000D01*
X42090132Y-43373084D01*
X41974240Y-42920286D01*
X41693891Y-42546305D01*
X41291766Y-42308076D01*
X41203744Y-42294197D01*
X41021000Y-42369269D01*
X40983000Y-42369269D01*
X40983000Y-42351000D01*
X40722529Y-42351000D01*
X40584256Y-42294197D01*
X40496234Y-42308076D01*
X40423779Y-42351000D01*
X40125000Y-42351000D01*
X40125000Y-42371000D01*
X40007000Y-42371000D01*
X40007000Y-42077000D01*
X40125000Y-42077000D01*
X40125000Y-42097000D01*
X40983000Y-42097000D01*
X40983000Y-42039000D01*
X42655451Y-42039000D01*
X42596807Y-42095466D01*
X42596807Y-42095466D01*
G37*
X42596807Y-42095466D02*
X42589892Y-42105402D01*
X42580068Y-42112481D01*
X42505739Y-42192257D01*
X42464611Y-42258783D01*
X42421158Y-42323812D01*
X42419616Y-42331563D01*
X42415461Y-42338284D01*
X42402924Y-42415474D01*
X42387662Y-42492192D01*
X42389204Y-42499944D01*
X42387937Y-42507743D01*
X42405896Y-42583869D01*
X42421152Y-42660573D01*
X42425541Y-42667142D01*
X42427356Y-42674835D01*
X42473085Y-42738300D01*
X42516529Y-42803321D01*
X43528168Y-43814997D01*
X43340509Y-44002656D01*
X43327174Y-44000003D01*
X43262173Y-44012933D01*
X43196262Y-44019929D01*
X43178560Y-44029564D01*
X43158793Y-44033496D01*
X43103685Y-44070318D01*
X43045472Y-44102003D01*
X43032805Y-44117679D01*
X43016047Y-44128876D01*
X42979226Y-44183982D01*
X42937568Y-44235534D01*
X42523359Y-45024793D01*
X42516079Y-45049463D01*
X42502333Y-45071205D01*
X42491980Y-45131130D01*
X42474769Y-45189453D01*
X42477484Y-45215031D01*
X42473105Y-45240378D01*
X42486472Y-45299702D01*
X42492891Y-45360173D01*
X42505188Y-45382765D01*
X42510842Y-45407859D01*
X42545893Y-45457551D01*
X42574965Y-45510963D01*
X42594973Y-45527131D01*
X42609799Y-45548150D01*
X42683018Y-45617760D01*
X42692544Y-45623782D01*
X42699495Y-45632651D01*
X42775565Y-45697988D01*
X42785334Y-45703495D01*
X42792691Y-45711967D01*
X42871430Y-45773000D01*
X42881421Y-45777988D01*
X42889156Y-45786044D01*
X42935296Y-45818250D01*
X42826127Y-46081158D01*
X42825872Y-46373559D01*
X42937534Y-46643800D01*
X43144112Y-46850740D01*
X43414158Y-46962873D01*
X43706559Y-46963128D01*
X43890000Y-46887331D01*
X43890000Y-47491857D01*
X43652440Y-47444603D01*
X43313765Y-47511970D01*
X43026650Y-47703813D01*
X42834807Y-47990928D01*
X42767440Y-48329603D01*
X42767440Y-48562780D01*
X42725338Y-48562780D01*
X42725338Y-48681989D01*
X42589892Y-48602590D01*
X42316353Y-48732187D01*
X42083307Y-48991772D01*
X41967340Y-49320780D01*
X41967340Y-49620780D01*
X42725340Y-49620780D01*
X42725340Y-49600780D01*
X42979340Y-49600780D01*
X42979340Y-49620780D01*
X42999340Y-49620780D01*
X42999340Y-49874780D01*
X42979340Y-49874780D01*
X42979340Y-49894780D01*
X42725340Y-49894780D01*
X42725340Y-49874780D01*
X41967340Y-49874780D01*
X41967340Y-50174780D01*
X42007952Y-50290000D01*
X41867249Y-50290000D01*
X41334577Y-49757329D01*
X41635465Y-49575280D01*
X41889488Y-49229778D01*
X41991957Y-48813366D01*
X41877412Y-48641000D01*
X41021000Y-48641000D01*
X41021000Y-48661000D01*
X40767000Y-48661000D01*
X40767000Y-48641000D01*
X40747000Y-48641000D01*
X40747000Y-48387000D01*
X40767000Y-48387000D01*
X40767000Y-48367000D01*
X41021000Y-48367000D01*
X41021000Y-48387000D01*
X41877412Y-48387000D01*
X41991957Y-48214634D01*
X41889488Y-47798222D01*
X41635465Y-47452720D01*
X41268561Y-47230729D01*
X41188001Y-47219592D01*
X41021002Y-47296045D01*
X41021002Y-47179000D01*
X40950026Y-47179000D01*
X40983000Y-47081000D01*
X40983000Y-46509749D01*
X41127272Y-46606148D01*
X41418111Y-46664000D01*
X41447889Y-46664000D01*
X41738728Y-46606148D01*
X41985290Y-46441401D01*
X42150037Y-46194839D01*
X42207889Y-45904000D01*
X42150037Y-45613161D01*
X41985290Y-45366599D01*
X41738728Y-45201852D01*
X41447889Y-45144000D01*
X41418111Y-45144000D01*
X41127272Y-45201852D01*
X40880710Y-45366599D01*
X40868090Y-45385487D01*
X40859421Y-45359724D01*
X40608364Y-45071899D01*
X40767000Y-45006731D01*
X40767000Y-43815000D01*
X41021000Y-43815000D01*
X41021000Y-45006731D01*
X41203744Y-45081803D01*
X41291766Y-45067924D01*
X41693891Y-44829695D01*
X41974240Y-44455714D01*
X42090132Y-44002916D01*
X41976811Y-43815000D01*
X41021000Y-43815000D01*
X40767000Y-43815000D01*
X40747000Y-43815000D01*
X40747000Y-43561000D01*
X40767000Y-43561000D01*
X40767000Y-43124232D01*
X40859421Y-43018276D01*
X40983000Y-42651000D01*
X40983000Y-42369269D01*
X41021000Y-42369269D01*
X41021000Y-43561000D01*
X41976811Y-43561000D01*
X42090132Y-43373084D01*
X41974240Y-42920286D01*
X41693891Y-42546305D01*
X41291766Y-42308076D01*
X41203744Y-42294197D01*
X41021000Y-42369269D01*
X40983000Y-42369269D01*
X40983000Y-42351000D01*
X40722529Y-42351000D01*
X40584256Y-42294197D01*
X40496234Y-42308076D01*
X40423779Y-42351000D01*
X40125000Y-42351000D01*
X40125000Y-42371000D01*
X40007000Y-42371000D01*
X40007000Y-42077000D01*
X40125000Y-42077000D01*
X40125000Y-42097000D01*
X40983000Y-42097000D01*
X40983000Y-42039000D01*
X42655451Y-42039000D01*
X42596807Y-42095466D01*
G36*
X47663000Y-42097000D02*
X48521000Y-42097000D01*
X48521000Y-42077000D01*
X48639000Y-42077000D01*
X48639000Y-42371000D01*
X48521000Y-42371000D01*
X48521000Y-42351000D01*
X48476221Y-42351000D01*
X48403766Y-42308076D01*
X48315744Y-42294197D01*
X48177471Y-42351000D01*
X47834529Y-42351000D01*
X47696256Y-42294197D01*
X47608234Y-42308076D01*
X47206109Y-42546305D01*
X46925760Y-42920286D01*
X46809868Y-43373084D01*
X46923189Y-43561000D01*
X47879000Y-43561000D01*
X47879000Y-43124232D01*
X48041302Y-43310303D01*
X48133000Y-43354575D01*
X48133000Y-43561000D01*
X48153000Y-43561000D01*
X48153000Y-43815000D01*
X48133000Y-43815000D01*
X48133000Y-43835000D01*
X47879000Y-43835000D01*
X47879000Y-43815000D01*
X46923189Y-43815000D01*
X46809868Y-44002916D01*
X46925760Y-44455714D01*
X47206109Y-44829695D01*
X47608234Y-45067924D01*
X47696256Y-45081803D01*
X47878998Y-45006732D01*
X47878998Y-45123000D01*
X47993063Y-45123000D01*
X47786579Y-45359724D01*
X47777910Y-45385487D01*
X47765290Y-45366599D01*
X47518728Y-45201852D01*
X47227889Y-45144000D01*
X47198111Y-45144000D01*
X46907272Y-45201852D01*
X46660710Y-45366599D01*
X46495963Y-45613161D01*
X46438111Y-45904000D01*
X46495963Y-46194839D01*
X46660710Y-46441401D01*
X46907272Y-46606148D01*
X47198111Y-46664000D01*
X47227889Y-46664000D01*
X47518728Y-46606148D01*
X47663000Y-46509749D01*
X47663000Y-47081000D01*
X47677200Y-47123202D01*
X47608234Y-47134076D01*
X47206109Y-47372305D01*
X46925760Y-47746286D01*
X46809868Y-48199084D01*
X46923189Y-48387000D01*
X47879000Y-48387000D01*
X47879000Y-48367000D01*
X48133000Y-48367000D01*
X48133000Y-48387000D01*
X48153000Y-48387000D01*
X48153000Y-48641000D01*
X48133000Y-48641000D01*
X48133000Y-48661000D01*
X47879000Y-48661000D01*
X47879000Y-48641000D01*
X46923189Y-48641000D01*
X46809868Y-48828916D01*
X46925760Y-49281714D01*
X47206109Y-49655695D01*
X47336067Y-49732685D01*
X46916496Y-50152255D01*
X46932660Y-50070996D01*
X46932660Y-49424564D01*
X46865293Y-49085889D01*
X46673450Y-48798774D01*
X46386335Y-48606931D01*
X46132560Y-48556452D01*
X46132560Y-48329603D01*
X46065193Y-47990928D01*
X45873350Y-47703813D01*
X45645000Y-47551235D01*
X45645000Y-46707518D01*
X45707740Y-46644888D01*
X45819873Y-46374842D01*
X45820128Y-46082441D01*
X45712507Y-45821980D01*
X45764060Y-45786786D01*
X45775760Y-45774851D01*
X45790603Y-45767167D01*
X45907093Y-45674111D01*
X45917793Y-45661419D01*
X45931924Y-45652712D01*
X46040614Y-45551752D01*
X46050283Y-45538376D01*
X46063654Y-45528703D01*
X46164210Y-45420366D01*
X46172822Y-45406377D01*
X46185387Y-45395793D01*
X46277472Y-45280612D01*
X46285009Y-45266067D01*
X46296729Y-45254621D01*
X46380008Y-45133125D01*
X46386449Y-45118082D01*
X46397285Y-45105821D01*
X46471424Y-44978540D01*
X46476749Y-44963048D01*
X46486667Y-44950009D01*
X46551328Y-44817475D01*
X46555512Y-44801590D01*
X46564468Y-44787816D01*
X46619317Y-44650557D01*
X46622333Y-44634333D01*
X46630279Y-44619872D01*
X46674981Y-44478420D01*
X46676799Y-44461918D01*
X46683688Y-44446815D01*
X46717907Y-44301698D01*
X46718495Y-44284997D01*
X46724271Y-44269316D01*
X46747670Y-44121068D01*
X46747000Y-44104253D01*
X46751608Y-44088068D01*
X46763853Y-43937217D01*
X46761903Y-43920390D01*
X46765290Y-43903793D01*
X46766046Y-43750869D01*
X46762817Y-43734204D01*
X46764934Y-43717364D01*
X46754045Y-43564827D01*
X46749566Y-43548490D01*
X46750396Y-43531572D01*
X46728181Y-43381866D01*
X46722511Y-43366023D01*
X46722065Y-43349200D01*
X46688893Y-43202829D01*
X46682090Y-43187563D01*
X46680396Y-43170936D01*
X46636636Y-43028410D01*
X46628762Y-43013798D01*
X46625855Y-42997456D01*
X46571878Y-42859279D01*
X46562989Y-42845373D01*
X46558904Y-42829385D01*
X46495080Y-42696066D01*
X46485232Y-42682917D01*
X46480003Y-42667341D01*
X46406701Y-42539386D01*
X46395943Y-42527035D01*
X46389602Y-42511929D01*
X46307192Y-42389845D01*
X46295566Y-42378328D01*
X46288142Y-42363744D01*
X46196995Y-42248037D01*
X46184542Y-42237393D01*
X46176056Y-42223377D01*
X46076540Y-42114555D01*
X46063301Y-42104827D01*
X46053783Y-42091443D01*
X45998196Y-42039000D01*
X47663000Y-42039000D01*
X47663000Y-42097000D01*
X47663000Y-42097000D01*
G37*
X47663000Y-42097000D02*
X48521000Y-42097000D01*
X48521000Y-42077000D01*
X48639000Y-42077000D01*
X48639000Y-42371000D01*
X48521000Y-42371000D01*
X48521000Y-42351000D01*
X48476221Y-42351000D01*
X48403766Y-42308076D01*
X48315744Y-42294197D01*
X48177471Y-42351000D01*
X47834529Y-42351000D01*
X47696256Y-42294197D01*
X47608234Y-42308076D01*
X47206109Y-42546305D01*
X46925760Y-42920286D01*
X46809868Y-43373084D01*
X46923189Y-43561000D01*
X47879000Y-43561000D01*
X47879000Y-43124232D01*
X48041302Y-43310303D01*
X48133000Y-43354575D01*
X48133000Y-43561000D01*
X48153000Y-43561000D01*
X48153000Y-43815000D01*
X48133000Y-43815000D01*
X48133000Y-43835000D01*
X47879000Y-43835000D01*
X47879000Y-43815000D01*
X46923189Y-43815000D01*
X46809868Y-44002916D01*
X46925760Y-44455714D01*
X47206109Y-44829695D01*
X47608234Y-45067924D01*
X47696256Y-45081803D01*
X47878998Y-45006732D01*
X47878998Y-45123000D01*
X47993063Y-45123000D01*
X47786579Y-45359724D01*
X47777910Y-45385487D01*
X47765290Y-45366599D01*
X47518728Y-45201852D01*
X47227889Y-45144000D01*
X47198111Y-45144000D01*
X46907272Y-45201852D01*
X46660710Y-45366599D01*
X46495963Y-45613161D01*
X46438111Y-45904000D01*
X46495963Y-46194839D01*
X46660710Y-46441401D01*
X46907272Y-46606148D01*
X47198111Y-46664000D01*
X47227889Y-46664000D01*
X47518728Y-46606148D01*
X47663000Y-46509749D01*
X47663000Y-47081000D01*
X47677200Y-47123202D01*
X47608234Y-47134076D01*
X47206109Y-47372305D01*
X46925760Y-47746286D01*
X46809868Y-48199084D01*
X46923189Y-48387000D01*
X47879000Y-48387000D01*
X47879000Y-48367000D01*
X48133000Y-48367000D01*
X48133000Y-48387000D01*
X48153000Y-48387000D01*
X48153000Y-48641000D01*
X48133000Y-48641000D01*
X48133000Y-48661000D01*
X47879000Y-48661000D01*
X47879000Y-48641000D01*
X46923189Y-48641000D01*
X46809868Y-48828916D01*
X46925760Y-49281714D01*
X47206109Y-49655695D01*
X47336067Y-49732685D01*
X46916496Y-50152255D01*
X46932660Y-50070996D01*
X46932660Y-49424564D01*
X46865293Y-49085889D01*
X46673450Y-48798774D01*
X46386335Y-48606931D01*
X46132560Y-48556452D01*
X46132560Y-48329603D01*
X46065193Y-47990928D01*
X45873350Y-47703813D01*
X45645000Y-47551235D01*
X45645000Y-46707518D01*
X45707740Y-46644888D01*
X45819873Y-46374842D01*
X45820128Y-46082441D01*
X45712507Y-45821980D01*
X45764060Y-45786786D01*
X45775760Y-45774851D01*
X45790603Y-45767167D01*
X45907093Y-45674111D01*
X45917793Y-45661419D01*
X45931924Y-45652712D01*
X46040614Y-45551752D01*
X46050283Y-45538376D01*
X46063654Y-45528703D01*
X46164210Y-45420366D01*
X46172822Y-45406377D01*
X46185387Y-45395793D01*
X46277472Y-45280612D01*
X46285009Y-45266067D01*
X46296729Y-45254621D01*
X46380008Y-45133125D01*
X46386449Y-45118082D01*
X46397285Y-45105821D01*
X46471424Y-44978540D01*
X46476749Y-44963048D01*
X46486667Y-44950009D01*
X46551328Y-44817475D01*
X46555512Y-44801590D01*
X46564468Y-44787816D01*
X46619317Y-44650557D01*
X46622333Y-44634333D01*
X46630279Y-44619872D01*
X46674981Y-44478420D01*
X46676799Y-44461918D01*
X46683688Y-44446815D01*
X46717907Y-44301698D01*
X46718495Y-44284997D01*
X46724271Y-44269316D01*
X46747670Y-44121068D01*
X46747000Y-44104253D01*
X46751608Y-44088068D01*
X46763853Y-43937217D01*
X46761903Y-43920390D01*
X46765290Y-43903793D01*
X46766046Y-43750869D01*
X46762817Y-43734204D01*
X46764934Y-43717364D01*
X46754045Y-43564827D01*
X46749566Y-43548490D01*
X46750396Y-43531572D01*
X46728181Y-43381866D01*
X46722511Y-43366023D01*
X46722065Y-43349200D01*
X46688893Y-43202829D01*
X46682090Y-43187563D01*
X46680396Y-43170936D01*
X46636636Y-43028410D01*
X46628762Y-43013798D01*
X46625855Y-42997456D01*
X46571878Y-42859279D01*
X46562989Y-42845373D01*
X46558904Y-42829385D01*
X46495080Y-42696066D01*
X46485232Y-42682917D01*
X46480003Y-42667341D01*
X46406701Y-42539386D01*
X46395943Y-42527035D01*
X46389602Y-42511929D01*
X46307192Y-42389845D01*
X46295566Y-42378328D01*
X46288142Y-42363744D01*
X46196995Y-42248037D01*
X46184542Y-42237393D01*
X46176056Y-42223377D01*
X46076540Y-42114555D01*
X46063301Y-42104827D01*
X46053783Y-42091443D01*
X45998196Y-42039000D01*
X47663000Y-42039000D01*
X47663000Y-42097000D01*
M02*
